<svg width="24" height="25" viewBox="0 0 24 25" fill="none" xmlns="http://www.w3.org/2000/svg">
<path d="M12 6.76825C8.5638 6.76825 5.76825 9.5638 5.76825 13C5.76825 16.4362 8.5638 19.2293 12 19.2293C15.4362 19.2293 18.2293 16.4338 18.2293 13C18.2317 9.5638 15.4362 6.76825 12 6.76825ZM12 16.8536C9.87422 16.8536 8.14641 15.1258 8.14641 13C8.14641 10.8742 9.87422 9.14641 12 9.14641C14.1258 9.14641 15.8536 10.8742 15.8536 13C15.8536 15.1258 14.1258 16.8536 12 16.8536ZM17.0936 1H6.90637C3.09889 1 0 4.09889 0 7.90637V18.0936C0 21.9011 3.09889 25 6.90637 25H17.0936C20.9011 25 24 21.9011 24 18.0936V7.90637C24 4.09889 20.9035 1 17.0936 1ZM21.6243 18.0936C21.6243 20.5907 19.5907 22.6218 17.0936 22.6218H6.90637C4.4093 22.6218 2.37816 20.5907 2.37816 18.0936V7.90637C2.37816 5.4093 4.4093 3.37816 6.90637 3.37816H17.0936C19.5907 3.37816 21.6218 5.4093 21.6218 7.90637V18.0936H21.6243ZM18.3167 4.96764C17.4188 4.96764 16.6859 5.69808 16.6859 6.59838C16.6859 7.49626 17.4164 8.22912 18.3167 8.22912C19.2146 8.22912 19.9474 7.49869 19.9474 6.59838C19.9474 5.69808 19.2146 4.96764 18.3167 4.96764Z" fill="#1B1A1A"/>
</svg>
