<svg width="24" height="25" viewBox="0 0 24 25" fill="none" xmlns="http://www.w3.org/2000/svg">
<path d="M24 5.55654C23.1169 5.94873 22.168 6.21203 21.1724 6.3327C22.1899 5.72384 22.9688 4.75844 23.3363 3.60928C22.3846 4.17426 21.3288 4.58291 20.2098 4.80506C19.313 3.84789 18.0322 3.25 16.6171 3.25C13.8965 3.25 11.6915 5.45232 11.6915 8.173C11.6915 8.5597 11.7353 8.93544 11.8176 9.29473C7.72575 9.08903 4.09736 7.1308 1.67021 4.14958C1.24786 4.87637 1.00377 5.72384 1.00377 6.62616C1.00377 8.33481 1.87316 9.84051 3.19232 10.7236C2.38601 10.6989 1.62633 10.4768 0.962633 10.1065V10.1696C0.962633 12.5557 2.66027 14.5441 4.9119 14.9966C4.50051 15.1091 4.06445 15.1694 3.61467 15.1694C3.29654 15.1694 2.98937 15.1392 2.69044 15.0816C3.31574 17.0371 5.13404 18.4605 7.28694 18.5017C5.60302 19.8209 3.48303 20.608 1.17381 20.608C0.77614 20.608 0.386699 20.5861 0 20.5395C2.18032 21.9354 4.76654 22.75 7.54748 22.75C16.6034 22.75 21.5564 15.2489 21.5564 8.74346C21.5564 8.52954 21.5509 8.31835 21.5427 8.10717C22.5053 7.41055 23.3418 6.54388 24 5.55654Z" fill="#1B1A1A"/>
</svg>
